# xmcd
#
# Track frame offsets:
#	150
#	15184
#	32936
#	51190
#	70276
#	86564
#	106068
#	122269
#	136972
#	158617
#	176953
#	195991
#
# Disc length: 2831 seconds
#
# Revision: 1
# Processed by: cddbd v1.5.2PL0 Copyright (c) Steve Scherf et al.
# Submitted via: audiograbber 1.83.01
#
DISCID=900b0d0c
DTITLE=Lionel Richie - Coming Home
DYEAR=2007
DGENRE=R&B
TTITLE0=I Call It Love
TTITLE1=Sweet Vacation
TTITLE2=Why
TTITLE3=What You Are
TTITLE4=Up All Night
TTITLE5=I'm Coming Home
TTITLE6=All Around the World
TTITLE7=Out of My Head
TTITLE8=Reason to Believe
TTITLE9=Stand Down
TTITLE10=I Love You
TTITLE11=I Apologize
EXTD=
EXTT0=
EXTT1=
EXTT2=
EXTT3=
EXTT4=
EXTT5=
EXTT6=
EXTT7=
EXTT8=
EXTT9=
EXTT10=
EXTT11=
PLAYORDER=
